Coordinates
version=1
nRows=17
nColumns=36
inDegrees=yes

Units are S.I. units (second, meters, Newtons, ...)
If the header above contains a line with 'inDegrees', this indicates whether rotational values are in degrees (yes) or radians (no).

endheader
time	pelvis_tilt	pelvis_list	pelvis_rotation	pelvis_tx	pelvis_ty	pelvis_tz	hip_flexion_r	hip_adduction_r	hip_rotation_r	knee_angle_r	knee_angle_r_beta	ankle_angle_r	subtalar_angle_r	mtp_angle_r	hip_flexion_l	hip_adduction_l	hip_rotation_l	knee_angle_l	knee_angle_l_beta	ankle_angle_l	subtalar_angle_l	mtp_angle_l	lumbar_extension	lumbar_bending	lumbar_rotation	arm_flex_r	arm_add_r	arm_rot_r	elbow_flex_r	pro_sup_r	arm_flex_l	arm_add_l	arm_rot_l	elbow_flex_l	pro_sup_l
      5.81666670	      2.67408753	     14.93418483	      5.25833469	      0.88703798	      0.82581462	      0.00128922	     60.21904479	    -19.02370709	     13.96030839	     30.22498080	      0.52752543	     -8.43589946	      5.93766411	     -7.49999987	     38.11552538	     23.64207586	     -5.11179332	     64.75121358	      1.13012187	     25.02206993	     -9.72539458	     -7.49999987	    -30.91335213	    -12.03883200	     -5.82899563	     61.64802918	      4.77570846	     62.37462295	    114.66367624	     89.35486935	     60.98744731	      1.89713546	     60.98308373	    120.12664777	     89.15055069
      5.83333330	      2.57098341	     15.55786324	      5.40656031	      0.89033225	      0.82414283	     -0.00046899	     61.14432593	    -19.50887953	     14.69059545	     30.66844084	      0.53526527	     -8.66013078	      5.72723172	     -7.49999987	     38.89293828	     24.24802033	     -5.54857365	     65.76270466	      1.14777572	     24.97109619	    -10.19216966	     -7.49999987	    -31.42300784	    -12.34396905	     -6.59088870	     61.88130538	      5.01042635	     63.09316102	    114.11240704	     89.56497692	     61.71753509	      1.65867237	     61.74487621	    119.92683804	     89.41334919
      5.85000000	      2.22485660	     16.21034769	      5.48814111	      0.89028572	      0.81652602	     -0.00001539	     62.38507339	    -19.88382273	     15.55395284	     31.23450438	      0.54514494	     -8.86963964	      5.63689604	     -7.49999987	     39.92083727	     24.78578699	     -6.22403975	     66.77085345	      1.16537124	     24.96931365	    -10.67291707	     -7.49999987	    -31.70043946	    -12.66737722	     -7.09994820	     61.98273318	      5.36900184	     64.00808861	    113.82018497	     88.03901918	     61.69999048	      1.20685136	     62.57402306	    120.64618954	     87.93649993
      5.86666670	      2.25676461	     16.53893911	      5.54494713	      0.88502853	      0.81357689	     -0.00235493	     63.03579194	    -20.15244754	     15.95479056	     31.68265341	      0.55296662	     -9.18991855	      5.64126394	     -7.49999987	     40.56200001	     25.08175031	     -6.62014697	     67.75682455	      1.18257968	     24.81602230	    -10.91500460	     -7.49999987	    -32.28884574	    -12.64877532	     -7.29434968	     62.39472734	      5.55563984	     63.89464088	    113.83174539	     88.15189297	     61.91767430	      1.39946362	     62.46867530	    120.72220610	     88.03777503
      5.88333330	      1.85240481	     17.35278591	      5.72588753	      0.88518231	      0.80809772	     -0.00201843	     64.34917086	    -20.65434204	     16.86900651	     32.19818264	      0.56196430	     -9.48381391	      5.65894745	     -7.49999987	     41.74005438	     25.77763157	     -7.42822563	     68.53034455	      1.19608015	     24.39773105	    -11.49455876	     -7.49999987	    -32.35800010	    -13.31072537	     -7.86115352	     62.82006239	      5.98284129	     63.95588338	    114.04211120	     87.17145528	     62.26135971	      1.13232479	     62.11906203	    121.09852682	     87.01158939
      5.90000000	      1.40433315	     17.78648806	      5.93030803	      0.88844734	      0.80331143	      0.00033423	     65.45944244	    -20.93106683	     17.51708526	     32.61492936	      0.56923790	     -9.68175090	      5.83595373	     -7.49999987	     42.82812137	     26.13769204	     -7.98626565	     69.33731305	      1.21016441	     24.28355186	    -12.05704073	     -7.49999987	    -32.00534059	    -13.57195197	     -8.12395482	     62.50821394	      6.39290237	     64.43686060	    113.05765454	     87.78864935	     62.14857771	      0.66369679	     62.60005991	    121.31613340	     87.61011364
      5.91666670	      1.19519961	     18.13556472	      6.14084691	      0.88361995	      0.79581826	     -0.00290875	     66.46658068	    -21.15126907	     18.12817932	     33.35145375	      0.58209268	     -9.81245791	      5.74165299	     -7.49999987	     43.83222781	     26.40894103	     -8.52744380	     70.35684713	      1.22795863	     24.16462956	    -12.53762191	     -7.49999987	    -32.05136069	    -13.76803054	     -8.43999580	     63.18795975	      6.19349326	     64.85859394	    113.01292098	     88.23031287	     62.60136120	      0.64854015	     62.78272483	    121.71003214	     87.97879837
      5.93333330	      0.92789474	     18.43140044	      6.43470312	      0.88305839	      0.79533541	     -0.00307068	     67.39409060	    -21.41947294	     18.57295970	     33.94548671	      0.59246051	     -9.95547264	      5.81884099	     -7.49999987	     44.81043758	     26.70200536	     -8.95294301	     71.25738446	      1.24367598	     24.05696524	    -13.04956428	     -7.49999987	    -32.09298441	    -13.87099186	     -9.02164837	     63.55874710	      6.18348438	     65.08080388	    112.64253487	     92.40258805	     62.86731789	      0.25708708	     62.96168755	    121.68180904	     91.43153985
      5.95000000	      0.71018228	     18.68532399	      6.66752301	      0.88719914	      0.79380693	     -0.00064178	     68.10347327	    -21.61876932	     18.99566420	     34.32195472	      0.59903112	    -10.04258994	      5.75445279	     -7.49999987	     45.56729596	     26.91822098	     -9.29919966	     72.04311635	      1.25738958	     24.08884596	    -13.36266403	     -7.49999987	    -32.20801059	    -14.04388572	     -9.46899597	     63.50085934	      6.37362532	     65.18839565	    112.61332696	     92.40675474	     62.88961137	     -0.12460699	     63.36199491	    122.09468784	     91.47395633
      5.96666670	      0.49506928	     18.86326760	      6.98430364	      0.87787390	      0.78919652	     -0.00103817	     68.79880456	    -21.81981899	     19.28370707	     34.73943802	      0.60631757	    -10.20495480	      5.70668473	     -7.49999987	     46.38886680	     27.02837270	     -9.64378277	     72.84589381	      1.27140069	     24.01214965	    -13.70904399	     -7.49999987	    -32.53684252	    -14.05578842	    -10.10713418	     64.36706515	      6.59078096	     64.75797562	    112.38754620	     92.36597709	     63.86993132	     -0.00849446	     62.56110402	    121.86575559	     91.39951928
      5.98333330	      0.31207297	     19.06617433	      7.32200886	      0.87807401	      0.78701637	     -0.00108558	     69.40261578	    -22.10123987	     19.51155418	     35.05940474	      0.61190205	    -10.33192406	      5.91223365	     -7.49999987	     47.13195206	     27.15959356	     -9.99683818	     73.55883960	      1.28384395	     23.71198866	    -14.26486326	     -7.49999987	    -32.81713790	    -14.15810148	    -10.51319915	     64.83590132	      6.98143673	     65.21201000	    112.20721974	     84.88587167	     64.22278758	     -0.49082732	     62.98112851	    122.09207761	     84.10683437
      6.00000000	     -0.04952588	     19.06826809	      7.49976006	      0.88674205	      0.78632873	     -0.00037629	     69.88892198	    -22.15531183	     19.59949777	     35.05196928	      0.61177227	    -10.37266971	      5.89318881	     -7.49999987	     47.71994527	     27.14919000	    -10.08339466	     74.10443829	      1.29336644	     23.85492777	    -14.27805671	     -7.49999987	    -32.50897344	    -14.18056343	    -10.84306894	     63.88479833	      7.71512217	     65.27188018	    112.08963997	     91.63311339	     63.25549008	     -1.13379288	     62.45731917	    122.40326973	     90.40422596
      6.01666670	     -0.49795128	     19.30364914	      7.60741235	      0.88281383	      0.77838377	     -0.00290560	     70.73548158	    -22.15394978	     20.08383337	     35.36832761	      0.61729377	    -10.44841448	      5.72383764	     -7.49999987	     48.51510206	     27.22687876	    -10.51650429	     74.62266433	      1.30241119	     23.89266943	    -14.45112527	     -7.49999987	    -32.00663870	    -14.53047148	    -10.96861204	     63.68418942	      7.91054166	     65.23913072	    112.71289496	     88.77260128	     63.12720541	     -0.84158015	     62.20783478	    122.85733424	     87.61926654
      6.03333330	     -1.03682237	     19.40031853	      7.84181356	      0.88673882	      0.77864214	     -0.00019095	     71.55236038	    -22.16980994	     20.38104886	     35.57616638	      0.62092124	    -10.45022658	      5.77735555	     -7.49999987	     49.31875008	     27.28409642	    -10.77624691	     75.12389355	      1.31115929	     24.00869152	    -14.46125278	     -7.49999987	    -31.53119061	    -14.71642705	    -10.97052341	     63.43221198	      8.35219580	     65.14730658	    112.69266558	     89.71631142	     63.05759352	     -0.95845898	     62.73804701	    123.46918937	     88.57485841
      6.05000000	     -1.06601328	     19.47369763	      7.84796424	      0.88232805	      0.77835065	     -0.00318478	     71.66564101	    -22.18729895	     20.43467312	     35.54752828	      0.62042141	    -10.44720798	      5.78560872	     -7.49999987	     49.47540085	     27.31329176	    -10.91082447	     75.34674324	      1.31504875	     24.01789778	    -14.49670885	     -7.49999987	    -31.69843116	    -14.60925029	    -11.07254248	     63.50700736	      8.21747281	     65.11428580	    112.63864905	     89.72645228	     63.07594055	     -0.88957529	     62.74766314	    123.45548946	     88.58796093
      6.06666670	     -1.43364769	     19.60924911	      8.00461736	      0.88617419	      0.77833085	     -0.00544579	     72.28293385	    -22.26265944	     20.66710854	     35.74892374	      0.62393642	    -10.39347337	      5.93232761	     -7.49999987	     50.04343263	     27.51390069	    -11.07247904	     75.64912099	      1.32032624	     24.13280116	    -14.58901841	     -7.49999987	    -31.19368396	    -14.82765637	    -11.07741928	     63.50504218	      7.93810056	     65.41941930	    113.13537959	     89.94526601	     62.83200961	     -0.42179705	     62.69013004	    123.49694517	     88.78882574
      6.08333330	     -1.66000311	     19.73305056	      7.96983983	      0.88627849	      0.77822251	     -0.00549077	     72.56441365	    -22.26358263	     20.79012082	     35.71159122	      0.62328485	    -10.34120814	      6.08191063	     -7.49999987	     50.27991960	     27.67555280	    -11.20761297	     75.70016575	      1.32121714	     24.09745014	    -14.64847036	     -7.49999987	    -30.74999817	    -15.02286839	    -11.10250760	     62.77783759	      7.77119084	     65.20874243	    113.30127936	     93.31208375	     62.35550559	     -0.33833363	     62.46729130	    123.25720520	     92.08799155
